<svg width="26" height="24" viewBox="0 0 26 24" fill="none" xmlns="http://www.w3.org/2000/svg">
<path d="M10.2108 10.682C11.1936 12.3305 12.6235 13.6957 14.3501 14.634L15.276 13.396C15.4249 13.1969 15.6451 13.0569 15.8948 13.0023C16.1446 12.9478 16.4066 12.9825 16.6314 13.1C18.1127 13.8729 19.7487 14.3378 21.4316 14.464C21.6943 14.4839 21.9395 14.5975 22.1183 14.7823C22.2971 14.9671 22.3963 15.2094 22.3963 15.461V19.923C22.3964 20.1706 22.3002 20.4094 22.1265 20.5932C21.9527 20.777 21.7137 20.8927 21.4557 20.918C20.9006 20.973 20.3413 21 19.7778 21C10.812 21 3.54297 14.06 3.54297 5.5C3.54297 4.962 3.57125 4.428 3.62886 3.898C3.65531 3.6517 3.77652 3.42352 3.96904 3.25763C4.16156 3.09175 4.41169 2.99995 4.67103 3H9.34456C9.60805 2.99997 9.86187 3.09475 10.0554 3.26545C10.249 3.43615 10.368 3.67022 10.3888 3.921C10.521 5.52779 11.0079 7.08968 11.8175 8.504C11.9405 8.71856 11.9769 8.96874 11.9198 9.2072C11.8627 9.44565 11.716 9.65584 11.5075 9.798L10.2108 10.682V10.682ZM7.5692 10.025L9.55928 8.668C8.9945 7.50409 8.60755 6.26884 8.41027 5H5.64826C5.64197 5.166 5.63883 5.333 5.63883 5.5C5.63778 12.956 11.9683 19 19.7778 19C19.9527 19 20.1276 18.997 20.3015 18.99V16.353C18.9725 16.1646 17.6787 15.7952 16.4596 15.256L15.0383 17.156C14.466 16.9437 13.9102 16.6931 13.375 16.406L13.3142 16.373C11.2598 15.2567 9.55852 13.6324 8.38932 11.671L8.35476 11.613C8.05406 11.102 7.79155 10.5713 7.5692 10.025V10.025Z" fill="#9092B0"/>
</svg>
