<svg width="100" height="56" viewBox="0 0 100 56" fill="none" xmlns="http://www.w3.org/2000/svg">
<path fill-rule="evenodd" clip-rule="evenodd" d="M94.836 6.35796C95.4967 4.38422 94.836 3.00266 91.7491 3.00266H81.4645C78.8193 3.00266 77.6439 4.25292 76.9826 5.63449C76.9826 5.63449 71.7664 17.0814 64.3461 24.4523C61.9217 26.6232 60.893 27.2808 59.5709 27.2808C58.9096 27.2808 57.9545 26.6232 57.9545 24.6495V6.35796C57.9545 3.98979 57.2196 3.00266 55.0154 3.00266H38.8527C37.2363 3.00266 36.2075 4.11897 36.2075 5.10823C36.2075 7.34457 39.8809 7.87242 40.322 14.0552V27.6104C40.322 30.5712 39.7343 31.0975 38.4117 31.0975C34.9585 31.0922 26.4364 19.6474 21.4381 6.48713C20.4093 4.05252 19.4542 3 16.8078 3H6.52615C3.58769 3 3 4.25027 3 5.63183C3 8.06592 6.45254 20.171 19.2363 36.1576C27.759 47.0788 39.7343 53 50.6078 53C57.146 53 57.9545 51.6838 57.9545 49.4469V41.1576C57.9545 38.5263 58.5422 38 60.6727 38C62.2162 38 64.7872 38.6576 70.8831 43.9207C77.8624 50.171 79.0384 53 82.9338 53H93.2195C96.158 53 97.6278 51.6838 96.7457 49.1195C95.7906 46.5536 92.4846 42.8033 88.0787 38.3285C85.6544 35.7626 82.0546 33.0659 81.0258 31.6838C79.4824 29.9073 79.9241 29.1179 81.0258 27.6045C81.0258 27.5391 93.5894 11.7497 94.8384 6.35477L94.836 6.35796Z" stroke="#0F5B91" stroke-width="6"/>
</svg>
