<svg width="74" height="74" viewBox="0 0 74 74" fill="none" xmlns="http://www.w3.org/2000/svg">
<path d="M28.8785 32.9362C31.7717 38.019 35.981 42.2283 41.0638 45.1215L43.7895 41.3043C44.2278 40.6905 44.8759 40.2587 45.6111 40.0905C46.3464 39.9223 47.1178 40.0295 47.7793 40.3917C52.1402 42.7749 56.956 44.2081 61.9103 44.5973C62.6835 44.6586 63.4052 45.0091 63.9315 45.5788C64.4578 46.1486 64.7501 46.8958 64.75 47.6714V61.4292C64.7502 62.1927 64.4671 62.929 63.9556 63.4957C63.4441 64.0625 62.7406 64.4193 61.9812 64.4972C60.347 64.6667 58.7005 64.75 57.0417 64.75C30.6483 64.75 9.25 43.3517 9.25 16.9583C9.25 15.2995 9.33325 13.653 9.50283 12.0188C9.5807 11.2594 9.93753 10.5559 10.5043 10.0444C11.071 9.53289 11.8073 9.24984 12.5708 9.25H26.3286C27.1042 9.2499 27.8514 9.54215 28.4212 10.0685C28.9909 10.5948 29.3414 11.3165 29.4027 12.0897C29.7919 17.044 31.2251 21.8598 33.6083 26.2207C33.9705 26.8822 34.0777 27.6536 33.9095 28.3889C33.7413 29.1241 33.3094 29.7722 32.6957 30.2105L28.8785 32.9362V32.9362ZM21.1023 30.9104L26.9607 26.7263C25.2981 23.1376 24.159 19.3289 23.5782 15.4167H15.4475C15.429 15.9285 15.4197 16.4434 15.4197 16.9583C15.4167 39.9477 34.0523 58.5833 57.0417 58.5833C57.5566 58.5833 58.0715 58.5741 58.5833 58.5525V50.4218C54.6711 49.841 50.8624 48.7019 47.2737 47.0393L43.0896 52.8977C41.405 52.2431 39.7689 51.4704 38.1932 50.5852L38.0144 50.4834C31.9667 47.0415 26.9584 42.0333 23.5166 35.9856L23.4148 35.8067C22.5296 34.2311 21.7569 32.595 21.1023 30.9104V30.9104Z" fill="#0F5B91"/>
</svg>
