<svg width="74" height="74" viewBox="0 0 74 74" fill="none" xmlns="http://www.w3.org/2000/svg">
<path d="M9.24935 9.25H64.7494C65.5671 9.25 66.3514 9.57485 66.9296 10.1531C67.5078 10.7313 67.8327 11.5156 67.8327 12.3333V61.6667C67.8327 62.4844 67.5078 63.2687 66.9296 63.8469C66.3514 64.4252 65.5671 64.75 64.7494 64.75H9.24935C8.4316 64.75 7.64734 64.4252 7.0691 63.8469C6.49087 63.2687 6.16602 62.4844 6.16602 61.6667V12.3333C6.16602 11.5156 6.49087 10.7313 7.0691 10.1531C7.64734 9.57485 8.4316 9.25 9.24935 9.25V9.25ZM61.666 22.3172L37.2213 44.2088L12.3327 22.2493V58.5833H61.666V22.3172ZM13.9083 15.4167L37.1874 35.9578L60.1305 15.4167H13.9083Z" fill="#0F5B91"/>
</svg>
