<svg width="26" height="24" viewBox="0 0 26 24" fill="none" xmlns="http://www.w3.org/2000/svg">
<path d="M4.51367 22C4.51367 19.8783 5.39648 17.8434 6.9679 16.3431C8.53932 14.8429 10.6706 14 12.8929 14C15.1152 14 17.2465 14.8429 18.818 16.3431C20.3894 17.8434 21.2722 19.8783 21.2722 22H19.1774C19.1774 20.4087 18.5153 18.8826 17.3367 17.7574C16.1581 16.6321 14.5597 16 12.8929 16C11.2262 16 9.62772 16.6321 8.44916 17.7574C7.2706 18.8826 6.60849 20.4087 6.60849 22H4.51367ZM12.8929 13C9.42078 13 6.60849 10.315 6.60849 7C6.60849 3.685 9.42078 1 12.8929 1C16.3651 1 19.1774 3.685 19.1774 7C19.1774 10.315 16.3651 13 12.8929 13ZM12.8929 11C15.2077 11 17.0826 9.21 17.0826 7C17.0826 4.79 15.2077 3 12.8929 3C10.5782 3 8.7033 4.79 8.7033 7C8.7033 9.21 10.5782 11 12.8929 11Z" fill="#9092B0"/>
</svg>
