<svg width="26" height="24" viewBox="0 0 26 24" fill="none" xmlns="http://www.w3.org/2000/svg">
<path d="M3.54155 3H22.3949C22.6727 3 22.9391 3.10536 23.1355 3.29289C23.3319 3.48043 23.4423 3.73478 23.4423 4V20C23.4423 20.2652 23.3319 20.5196 23.1355 20.7071C22.9391 20.8946 22.6727 21 22.3949 21H3.54155C3.26376 21 2.99735 20.8946 2.80092 20.7071C2.60449 20.5196 2.49414 20.2652 2.49414 20V4C2.49414 3.73478 2.60449 3.48043 2.80092 3.29289C2.99735 3.10536 3.26376 3 3.54155 3V3ZM21.3475 7.238L13.0436 14.338L4.58896 7.216V19H21.3475V7.238ZM5.12418 5L13.0321 11.662L20.8259 5H5.12418Z" fill="#9092B0"/>
</svg>
