<svg width="85" height="84" viewBox="0 0 85 84" fill="none" xmlns="http://www.w3.org/2000/svg">
<path d="M69.4386 24.4825C69.1694 23.4395 68.4044 22.652 67.5296 22.4105C65.9819 21.98 58.4381 21 42.5006 21C26.5632 21 19.0265 21.98 17.4646 22.4105C16.6004 22.6485 15.8354 23.436 15.5627 24.4825C15.1767 25.9665 14.1673 32.186 14.1673 42C14.1673 51.814 15.1767 58.03 15.5627 59.521C15.8319 60.5605 16.5969 61.348 17.4682 61.586C19.0265 62.02 26.5632 63 42.5006 63C58.4381 63 65.9784 62.02 67.5367 61.5895C68.4009 61.3515 69.1659 60.564 69.4386 59.5175C69.8246 58.0335 70.834 51.8 70.834 42C70.834 32.2 69.8246 25.97 69.4386 24.4825ZM76.2988 22.743C77.9173 28.98 77.9173 42 77.9173 42C77.9173 42 77.9173 55.02 76.2988 61.257C75.3992 64.7045 72.7677 67.417 69.435 68.334C63.3823 70 42.5006 70 42.5006 70C42.5006 70 21.6296 70 15.5663 68.334C12.2194 67.403 9.59148 64.694 8.70253 61.257C7.08398 55.02 7.08398 42 7.08398 42C7.08398 42 7.08398 28.98 8.70253 22.743C9.60211 19.2955 12.2336 16.583 15.5663 15.666C21.6296 14 42.5006 14 42.5006 14C42.5006 14 63.3823 14 69.435 15.666C72.7819 16.597 75.4098 19.306 76.2988 22.743V22.743ZM35.4173 54.25V29.75L56.6673 42L35.4173 54.25Z" fill="#0F5B91"/>
</svg>
