<svg width="37" height="37" viewBox="0 0 37 37" fill="none" xmlns="http://www.w3.org/2000/svg">
<path d="M18.5001 33.9171C16.678 33.9171 14.8737 33.5582 13.1903 32.8609C11.5069 32.1636 9.97737 31.1416 8.68896 29.8532C7.40055 28.5648 6.37852 27.0352 5.68124 25.3518C4.98395 23.6684 4.62507 21.8642 4.62507 20.0421C4.62507 18.22 4.98395 16.4157 5.68124 14.7323C6.37852 13.0489 7.40055 11.5194 8.68896 10.231C9.97737 8.94254 11.5069 7.92052 13.1903 7.22323C14.8737 6.52595 16.678 6.16706 18.5001 6.16706C22.1799 6.16706 25.7091 7.62889 28.3112 10.231C30.9132 12.833 32.3751 16.3622 32.3751 20.0421C32.3751 23.7219 30.9132 27.2511 28.3112 29.8532C25.7091 32.4552 22.1799 33.9171 18.5001 33.9171V33.9171ZM18.5001 30.8337C19.9172 30.8337 21.3206 30.5546 22.6299 30.0123C23.9392 29.4699 25.1288 28.675 26.1309 27.6729C27.133 26.6708 27.9279 25.4812 28.4703 24.1719C29.0126 22.8625 29.2917 21.4592 29.2917 20.0421C29.2917 18.6249 29.0126 17.2216 28.4703 15.9123C27.9279 14.603 27.133 13.4133 26.1309 12.4112C25.1288 11.4091 23.9392 10.6142 22.6299 10.0719C21.3206 9.52953 19.9172 9.25039 18.5001 9.25039C15.6379 9.25039 12.893 10.3874 10.8692 12.4112C8.84538 14.435 7.7084 17.1799 7.7084 20.0421C7.7084 22.9042 8.84538 25.6491 10.8692 27.6729C12.893 29.6968 15.6379 30.8337 18.5001 30.8337V30.8337ZM20.0417 20.0421H24.6667V23.1254H16.9584V12.3337H20.0417V20.0421ZM2.69336 9.68514L8.14315 4.23535L10.3246 6.41527L4.87173 11.8666L2.69336 9.68514ZM28.8554 4.23535L34.3068 9.68514L32.1269 11.8666L26.6755 6.41527L28.857 4.23535H28.8554Z" fill="#FE9800"/>
</svg>
