<svg width="20" height="21" viewBox="0 0 20 21" fill="none" xmlns="http://www.w3.org/2000/svg">
<path d="M14.9995 2.00488H18.9995C19.2647 2.00488 19.5191 2.11024 19.7066 2.29778C19.8942 2.48531 19.9995 2.73967 19.9995 3.00488V19.0049C19.9995 19.2701 19.8942 19.5245 19.7066 19.712C19.5191 19.8995 19.2647 20.0049 18.9995 20.0049H0.999512C0.734295 20.0049 0.479941 19.8995 0.292405 19.712C0.104869 19.5245 -0.000488281 19.2701 -0.000488281 19.0049V3.00488C-0.000488281 2.73967 0.104869 2.48531 0.292405 2.29778C0.479941 2.11024 0.734295 2.00488 0.999512 2.00488H4.99951V0.00488281H6.99951V2.00488H12.9995V0.00488281H14.9995V2.00488ZM17.9995 10.0049H1.99951V18.0049H17.9995V10.0049ZM12.9995 4.00488H6.99951V6.00488H4.99951V4.00488H1.99951V8.00488H17.9995V4.00488H14.9995V6.00488H12.9995V4.00488ZM3.99951 12.0049H5.99951V14.0049H3.99951V12.0049ZM8.99951 12.0049H10.9995V14.0049H8.99951V12.0049ZM13.9995 12.0049H15.9995V14.0049H13.9995V12.0049Z" fill="#9092B0"/>
</svg>
