<svg width="56" height="56" viewBox="0 0 56 56" fill="none" xmlns="http://www.w3.org/2000/svg">
<circle cx="28" cy="28" r="28" fill="#FE9800"/>
<g clip-path="url(#clip0_5882_8277)">
<path d="M40 21.0097L37.3334 23.6763V17.3337H25.3334V24.0003H18.6667V38.667H37.3334V34.991L40 32.3243V40.011C39.9997 40.3619 39.86 40.6983 39.6118 40.9463C39.3635 41.1943 39.0269 41.3337 38.676 41.3337H17.324C17.1489 41.3324 16.9758 41.2967 16.8145 41.2286C16.6532 41.1605 16.5069 41.0612 16.3839 40.9365C16.261 40.8119 16.1638 40.6642 16.0979 40.502C16.0321 40.3397 15.9988 40.1661 16 39.991V22.667L24.004 14.667H38.664C39.4 14.667 40 15.2737 40 15.9897V21.0097ZM41.0374 23.743L42.9227 25.6297L32.552 36.0003L30.664 35.9977L30.6667 34.115L41.0374 23.7443V23.743Z" fill="#262544"/>
</g>
<defs>
<clipPath id="clip0_5882_8277">
<rect width="32" height="32" fill="white" transform="translate(12 12)"/>
</clipPath>
</defs>
</svg>
