<svg width="89" height="18" viewBox="0 0 89 18" fill="none" xmlns="http://www.w3.org/2000/svg">
<path d="M8.90448 0.210938L11.3777 5.22213L16.9078 6.02571L12.9062 9.92639L13.8508 15.4342L8.90448 12.8338L3.95814 15.4342L4.90281 9.92639L0.901128 6.02571L6.43131 5.22213L8.90448 0.210938Z" fill="#FFCD1A"/>
<path d="M26.6213 0.210938L29.0945 5.22213L34.6246 6.02571L30.623 9.92639L31.5676 15.4342L26.6213 12.8338L21.6749 15.4342L22.6196 9.92639L18.6179 6.02571L24.1481 5.22213L26.6213 0.210938Z" fill="#FFCD1A"/>
<path d="M44.3361 0.210938L46.8093 5.22213L52.3395 6.02571L48.3378 9.92639L49.2825 15.4342L44.3361 12.8338L39.3898 15.4342L40.3344 9.92639L36.3328 6.02571L41.863 5.22213L44.3361 0.210938Z" fill="#FFCD1A"/>
<path d="M62.0544 0.210938L64.5276 5.22213L70.0577 6.02571L66.0561 9.92639L67.0007 15.4342L62.0544 12.8338L57.108 15.4342L58.0527 9.92639L54.051 6.02571L59.5812 5.22213L62.0544 0.210938Z" fill="#FFCD1A"/>
<path d="M79.7707 0.210938L82.2439 5.22213L87.774 6.02571L83.7724 9.92639L84.717 15.4342L79.7707 12.8338L74.8243 15.4342L75.769 9.92639L71.7673 6.02571L77.2975 5.22213L79.7707 0.210938Z" fill="#FFCD1A"/>
</svg>
