<svg width="101" height="101" viewBox="0 0 101 101" fill="none" xmlns="http://www.w3.org/2000/svg">
<g filter="url(#filter0_d_5702_1005)">
<circle cx="54.0433" cy="43.307" r="40.0433" fill="white"/>
</g>
<path d="M45.6706 60.045L35.75 62.25L37.955 52.3294C36.5029 49.6132 35.7454 46.58 35.75 43.5C35.75 33.1444 44.1444 24.75 54.5 24.75C64.8556 24.75 73.25 33.1444 73.25 43.5C73.25 53.8556 64.8556 62.25 54.5 62.25C51.4201 62.2546 48.3868 61.4971 45.6706 60.045ZM46.2144 56.0831L47.4388 56.7394C49.6111 57.9003 52.037 58.5051 54.5 58.5C57.4667 58.5 60.3668 57.6203 62.8336 55.972C65.3003 54.3238 67.2229 51.9811 68.3582 49.2403C69.4935 46.4994 69.7906 43.4834 69.2118 40.5736C68.633 37.6639 67.2044 34.9912 65.1066 32.8934C63.0088 30.7956 60.3361 29.367 57.4264 28.7882C54.5167 28.2094 51.5007 28.5065 48.7598 29.6418C46.0189 30.7771 43.6762 32.6997 42.028 35.1664C40.3798 37.6332 39.5 40.5333 39.5 43.5C39.5 46.0013 40.1094 48.4088 41.2625 50.5613L41.9169 51.7856L40.6888 57.3112L46.2144 56.0831ZM45.125 43.5H48.875C48.875 44.9918 49.4677 46.4226 50.5225 47.4775C51.5774 48.5324 53.0082 49.125 54.5 49.125C55.9919 49.125 57.4226 48.5324 58.4775 47.4775C59.5324 46.4226 60.125 44.9918 60.125 43.5H63.875C63.875 45.9864 62.8873 48.371 61.1291 50.1291C59.371 51.8873 56.9864 52.875 54.5 52.875C52.0136 52.875 49.6291 51.8873 47.8709 50.1291C46.1127 48.371 45.125 45.9864 45.125 43.5Z" fill="#0F5B91"/>
<defs>
<filter id="filter0_d_5702_1005" x="0" y="0.263672" width="100.086" height="100.087" filterUnits="userSpaceOnUse" color-interpolation-filters="sRGB">
<feFlood flood-opacity="0" result="BackgroundImageFix"/>
<feColorMatrix in="SourceAlpha" type="matrix" values="0 0 0 0 0 0 0 0 0 0 0 0 0 0 0 0 0 0 127 0" result="hardAlpha"/>
<feOffset dx="-4" dy="7"/>
<feGaussianBlur stdDeviation="5"/>
<feComposite in2="hardAlpha" operator="out"/>
<feColorMatrix type="matrix" values="0 0 0 0 0.103767 0 0 0 0 0.437314 0 0 0 0 0.579167 0 0 0 0.3 0"/>
<feBlend mode="normal" in2="BackgroundImageFix" result="effect1_dropShadow_5702_1005"/>
<feBlend mode="normal" in="SourceGraphic" in2="effect1_dropShadow_5702_1005" result="shape"/>
</filter>
</defs>
</svg>
